<svg width="256" height="256" viewBox="0 0 256 256" fill="none" xmlns="http://www.w3.org/2000/svg">
  <defs>
    <linearGradient id="grad-rail-21" x1="0%" y1="0%" x2="100%" y2="0%">
      <stop offset="0%" style="stop-color:#1D4ED8;stop-opacity:1" />
      <stop offset="100%" style="stop-color:#0EA5E9;stop-opacity:1" />
    </linearGradient>
  </defs>
  
  <!-- CRT-style frame -->
  <path d="M 34 8 
           Q 128 0, 222 8
           Q 252 8, 252 34
           Q 256 128, 252 222
           Q 252 252, 222 252
           Q 128 256, 34 252
           Q 4 252, 4 222
           Q 0 128, 4 34
           Q 4 8, 34 8 Z" 
        fill="none" 
        stroke="#FFFFFF" 
        stroke-width="7" 
        opacity="0.5"/>
  
  <!-- Six thick parallel lanes, tight spacing -->
  <line x1="16" y1="52" x2="240" y2="52" stroke="url(#grad-rail-21)" stroke-width="20" stroke-linecap="round"/>
  <line x1="16" y1="76" x2="240" y2="76" stroke="url(#grad-rail-21)" stroke-width="20" stroke-linecap="round"/>
  <line x1="16" y1="100" x2="240" y2="100" stroke="url(#grad-rail-21)" stroke-width="20" stroke-linecap="round"/>
  <line x1="16" y1="124" x2="240" y2="124" stroke="url(#grad-rail-21)" stroke-width="20" stroke-linecap="round"/>
  <line x1="16" y1="148" x2="240" y2="148" stroke="url(#grad-rail-21)" stroke-width="20" stroke-linecap="round"/>
  <line x1="16" y1="172" x2="240" y2="172" stroke="url(#grad-rail-21)" stroke-width="20" stroke-linecap="round"/>
</svg>
