<svg width="256" height="256" viewBox="0 0 256 256" fill="none" xmlns="http://www.w3.org/2000/svg">
  <defs>
    <linearGradient id="grad-rail-18" x1="0%" y1="0%" x2="100%" y2="0%">
      <stop offset="0%" style="stop-color:#1D4ED8;stop-opacity:1" />
      <stop offset="100%" style="stop-color:#0EA5E9;stop-opacity:1" />
    </linearGradient>
    <linearGradient id="grad-switch-18" x1="0%" y1="0%" x2="100%" y2="0%">
      <stop offset="0%" style="stop-color:#22D3EE;stop-opacity:0.9" />
      <stop offset="100%" style="stop-color:#38BDF8;stop-opacity:0.9" />
    </linearGradient>
  </defs>
  
  <!-- CRT-style frame -->
  <path d="M 34 8 
           Q 128 0, 222 8
           Q 252 8, 252 34
           Q 256 128, 252 222
           Q 252 252, 222 252
           Q 128 256, 34 252
           Q 4 252, 4 222
           Q 0 128, 4 34
           Q 4 8, 34 8 Z" 
        fill="none" 
        stroke="#FFFFFF" 
        stroke-width="7" 
        opacity="0.5"/>
  
  <!-- Six thick lanes -->
  <path d="M 16 60 C 80 40, 160 40, 240 60" stroke="url(#grad-rail-18)" stroke-width="12" stroke-linecap="round"/>
  <path d="M 16 90 C 70 90, 120 120, 200 110 C 220 105, 230 100, 240 95" stroke="url(#grad-rail-18)" stroke-width="12" stroke-linecap="round"/>
  <path d="M 16 120 C 80 130, 140 100, 200 130 C 220 140, 230 150, 240 160" stroke="url(#grad-rail-18)" stroke-width="12" stroke-linecap="round"/>
  <path d="M 16 150 C 80 160, 120 190, 200 175 C 220 170, 230 165, 240 160" stroke="url(#grad-rail-18)" stroke-width="12" stroke-linecap="round"/>
  <path d="M 16 180 C 80 180, 140 160, 200 190 C 220 200, 230 205, 240 210" stroke="url(#grad-rail-18)" stroke-width="12" stroke-linecap="round"/>
  <path d="M 16 210 C 80 220, 160 220, 240 210" stroke="url(#grad-rail-18)" stroke-width="12" stroke-linecap="round"/>
  
  <!-- Idealized switches (junctions) -->
  <path d="M 120 105 Q 140 120, 160 135" stroke="url(#grad-switch-18)" stroke-width="8" stroke-linecap="round"/>
  <path d="M 140 170 Q 160 180, 180 190" stroke="url(#grad-switch-18)" stroke-width="8" stroke-linecap="round"/>
  <path d="M 96 76 Q 120 96, 144 116" stroke="url(#grad-switch-18)" stroke-width="8" stroke-linecap="round"/>
</svg>
