<svg width="128" height="128" viewBox="0 0 128 128" xmlns="http://www.w3.org/2000/svg">
  <title>DevSteps v11.2 — Hex Sprint Loop (Color)</title>
  <defs>
    <linearGradient id="v11g" x1="0%" y1="0%" x2="100%" y2="100%">
      <stop offset="0%" stop-color="#154734"/>
      <stop offset="100%" stop-color="#9AE3B2"/>
    </linearGradient>
  </defs>
  <!-- Hexes on a loop path (sprint) -->
  <polygon points="64,12 78,20 78,36 64,44 50,36 50,20" fill="none" stroke="url(#v11g)" stroke-width="6"/>
  <polygon points="92,36 106,44 106,60 92,68 78,60 78,44" fill="none" stroke="url(#v11g)" stroke-width="6"/>
  <polygon points="92,76 106,84 106,100 92,108 78,100 78,84" fill="none" stroke="url(#v11g)" stroke-width="6"/>
  <polygon points="64,92 78,100 78,116 64,124 50,116 50,100" fill="none" stroke="url(#v11g)" stroke-width="6"/>
  <polygon points="36,76 50,84 50,100 36,108 22,100 22,84" fill="none" stroke="url(#v11g)" stroke-width="6"/>
  <polygon points="36,36 50,44 50,60 36,68 22,60 22,44" fill="none" stroke="url(#v11g)" stroke-width="6"/>
  <!-- Motion wedge -->
  <polygon points="98,16 120,28 98,40" fill="#F59E0B"/>
</svg>
