<svg width="128" height="128" viewBox="0 0 128 128" xmlns="http://www.w3.org/2000/svg">
  <title>DevSteps v4.2 — Iso Steps with Chip (Color)</title>
  <defs>
    <linearGradient id="v4top" x1="0%" y1="0%" x2="100%" y2="0%">
      <stop offset="0%" stop-color="#38BDF8"/>
      <stop offset="100%" stop-color="#0EA5E9"/>
    </linearGradient>
    <linearGradient id="v4front" x1="0%" y1="0%" x2="0%" y2="100%">
      <stop offset="0%" stop-color="#2563EB"/>
      <stop offset="100%" stop-color="#1D4ED8"/>
    </linearGradient>
    <linearGradient id="v4side" x1="0%" y1="0%" x2="0%" y2="100%">
      <stop offset="0%" stop-color="#1E3A8A"/>
      <stop offset="100%" stop-color="#1E40AF"/>
    </linearGradient>
  </defs>
  <!-- Isometric steps (3) -->
  <polygon points="90,86 90,42 68,54 68,98" fill="url(#v4front)"/>
  <polygon points="48,42 68,54 90,42 70,30" fill="url(#v4top)"/>
  <polygon points="68,54 68,98 48,86 48,42" fill="url(#v4side)"/>

  <polygon points="72,102 72,64 50,76 50,114" fill="url(#v4front)" opacity="0.88"/>
  <polygon points="30,64 50,76 72,64 52,52" fill="url(#v4top)" opacity="0.88"/>
  <polygon points="50,76 50,114 30,102 30,64" fill="url(#v4side)" opacity="0.88"/>

  <polygon points="54,116 54,84 32,96 32,124" fill="url(#v4front)" opacity="0.76"/>
  <polygon points="12,84 32,96 54,84 34,72" fill="url(#v4top)" opacity="0.76"/>
  <polygon points="32,96 32,124 12,112 12,84" fill="url(#v4side)" opacity="0.76"/>

  <!-- Dev cue: tiny chip tile -->
  <rect x="88" y="16" width="14" height="14" rx="3" fill="#0F172A"/>
  <rect x="92" y="20" width="6" height="6" rx="1" fill="#E2E8F0"/>
</svg>
