<svg width="128" height="128" viewBox="0 0 128 128" xmlns="http://www.w3.org/2000/svg">
  <title>DevSteps v9 — DS Monogram with Steps</title>
  <defs>
    <linearGradient id="g9" x1="0%" y1="0%" x2="100%" y2="100%">
      <stop offset="0%" stop-color="#F59E0B"/>
      <stop offset="100%" stop-color="#EF4444"/>
    </linearGradient>
    <linearGradient id="g9b" x1="0%" y1="0%" x2="100%" y2="0%">
      <stop offset="0%" stop-color="#1D4ED8"/>
      <stop offset="100%" stop-color="#2563EB"/>
    </linearGradient>
  </defs>
  <!-- Background rounded square -->
  <rect x="4" y="4" width="120" height="120" rx="24" fill="url(#g9b)"/>
  <!-- Letter D (left half) -->
  <path d="M 22 34 L 38 34 Q 64 34 64 64 Q 64 94 38 94 L 22 94 Z"
    fill="white" opacity="0.95"/>
  <path d="M 30 46 L 38 46 Q 52 46 52 64 Q 52 82 38 82 L 30 82 Z"
    fill="url(#g9b)"/>
  <!-- Letter S as ascending steps (right side) — the innovation -->
  <!-- Top arm of S -->
  <path d="M 72 34 L 106 34 L 106 46 L 84 46 L 84 58 L 106 58 L 106 94 L 72 94 L 72 82 L 94 82 L 94 70 L 72 70 Z"
    fill="url(#g9)" opacity="0.95"/>
</svg>
